<svg xmlns="http://www.w3.org/2000/svg" viewBox="0 0 24 24">
  <path
    fill="#4285F4"
    d="M21.82 12.24c0-.73-.06-1.26-.2-1.81H12v3.75h5.64c-.11.93-.72 2.34-2.08 3.29l-.02.13 3.02 2.29.21.02c1.91-1.73 3.01-4.26 3.01-7.67Z"
  />
  <path
    fill="#34A853"
    d="M12 21.99c2.76 0 5.08-.89 6.77-2.42l-3.22-2.45c-.86.59-2.02 1-3.55 1-2.71 0-5.02-1.73-5.84-4.13l-.13.01-3.14 2.38-.04.12c1.68 3.28 5.15 5.49 9.15 5.49Z"
  />
  <path
    fill="#FBBC05"
    d="M6.17 13.99A5.8 5.8 0 0 1 5.82 12c0-.69.13-1.36.33-1.99L6.14 9.9 2.95 7.49l-.1.05A9.9 9.9 0 0 0 1.8 12c0 1.62.4 3.14 1.05 4.46l3.32-2.47Z"
  />
  <path
    fill="#EA4335"
    d="M12 5.87c1.94 0 3.24.82 3.99 1.5l2.91-2.8C17.07 2.95 14.76 2 12 2 8 2 4.53 4.21 2.85 7.49l3.3 2.52C6.98 7.6 9.29 5.87 12 5.87Z"
  />
</svg>
